<mxfile host="app.diagrams.net" agent="Mozilla/5.0 (Windows NT 10.0; Win64; x64) AppleWebKit/537.36 (KHTML, like Gecko) Chrome/141.0.0.0 Safari/537.36 Edg/141.0.0.0" version="28.2.8">
  <diagram name="Страница — 1" id="8JKQVGjjCYvQ_7rfnayX">
    <mxGraphModel dx="1616" dy="925" grid="1" gridSize="10" guides="1" tooltips="1" connect="1" arrows="1" fold="1" page="1" pageScale="1" pageWidth="827" pageHeight="1169" math="0" shadow="0">
      <root>
        <mxCell id="0" />
        <mxCell id="1" parent="0" />
        <mxCell id="5NzRhWPaP2dXFb9NmcK8-4" value="&#xa;&lt;span style=&quot;font-size: 14pt; line-height: 115%; color: rgb(73, 73, 73);&quot;&gt;Работник деканата&lt;/span&gt;&#xa;&#xa;&#xa;&#xa;" style="rounded=0;whiteSpace=wrap;html=1;fontFamily=Times New Roman;fontStyle=1" vertex="1" parent="1">
          <mxGeometry x="150" y="400" width="210" height="240" as="geometry" />
        </mxCell>
        <mxCell id="5NzRhWPaP2dXFb9NmcK8-5" value="" style="endArrow=classic;html=1;rounded=0;align=center;fontFamily=Times New Roman;fontStyle=1" edge="1" parent="1">
          <mxGeometry width="50" height="50" relative="1" as="geometry">
            <mxPoint x="240" y="310" as="sourcePoint" />
            <mxPoint x="239" y="400" as="targetPoint" />
          </mxGeometry>
        </mxCell>
        <mxCell id="5NzRhWPaP2dXFb9NmcK8-6" value="" style="endArrow=classic;html=1;rounded=0;align=center;fontFamily=Times New Roman;fontStyle=1" edge="1" parent="1">
          <mxGeometry width="50" height="50" relative="1" as="geometry">
            <mxPoint x="320" y="280" as="sourcePoint" />
            <mxPoint x="320" y="400" as="targetPoint" />
          </mxGeometry>
        </mxCell>
        <mxCell id="5NzRhWPaP2dXFb9NmcK8-7" value="" style="endArrow=classic;html=1;rounded=0;align=center;entryX=-0.013;entryY=0.167;entryDx=0;entryDy=0;entryPerimeter=0;" edge="1" parent="1" target="5NzRhWPaP2dXFb9NmcK8-4">
          <mxGeometry width="50" height="50" relative="1" as="geometry">
            <mxPoint x="40" y="440" as="sourcePoint" />
            <mxPoint x="200" y="430" as="targetPoint" />
          </mxGeometry>
        </mxCell>
        <mxCell id="5NzRhWPaP2dXFb9NmcK8-8" value="" style="endArrow=classic;html=1;rounded=0;align=center;entryX=0;entryY=0.25;entryDx=0;entryDy=0;" edge="1" parent="1">
          <mxGeometry width="50" height="50" relative="1" as="geometry">
            <mxPoint x="10" y="520" as="sourcePoint" />
            <mxPoint x="150" y="519" as="targetPoint" />
          </mxGeometry>
        </mxCell>
        <mxCell id="5NzRhWPaP2dXFb9NmcK8-10" value="" style="endArrow=classic;html=1;rounded=0;align=center;fontFamily=Times New Roman;fontStyle=1" edge="1" parent="1">
          <mxGeometry width="50" height="50" relative="1" as="geometry">
            <mxPoint x="360" y="443" as="sourcePoint" />
            <mxPoint x="480" y="443" as="targetPoint" />
          </mxGeometry>
        </mxCell>
        <mxCell id="5NzRhWPaP2dXFb9NmcK8-11" value="" style="endArrow=classic;html=1;rounded=0;align=center;fontFamily=Times New Roman;fontStyle=1;entryX=0.613;entryY=0.991;entryDx=0;entryDy=0;entryPerimeter=0;" edge="1" parent="1" target="5NzRhWPaP2dXFb9NmcK8-4">
          <mxGeometry width="50" height="50" relative="1" as="geometry">
            <mxPoint x="279" y="740" as="sourcePoint" />
            <mxPoint x="280" y="650" as="targetPoint" />
          </mxGeometry>
        </mxCell>
        <mxCell id="5NzRhWPaP2dXFb9NmcK8-14" value="" style="endArrow=classic;html=1;rounded=0;align=center;exitX=1;exitY=0.25;exitDx=0;exitDy=0;fontFamily=Times New Roman;fontStyle=1" edge="1" parent="1">
          <mxGeometry width="50" height="50" relative="1" as="geometry">
            <mxPoint x="360" y="470" as="sourcePoint" />
            <mxPoint x="420" y="470" as="targetPoint" />
            <Array as="points" />
          </mxGeometry>
        </mxCell>
        <mxCell id="5NzRhWPaP2dXFb9NmcK8-15" value="" style="endArrow=classic;html=1;rounded=0;align=center;exitX=1;exitY=0.25;exitDx=0;exitDy=0;fontFamily=Times New Roman;fontStyle=1" edge="1" parent="1">
          <mxGeometry width="50" height="50" relative="1" as="geometry">
            <mxPoint x="360" y="420" as="sourcePoint" />
            <mxPoint x="520" y="420" as="targetPoint" />
          </mxGeometry>
        </mxCell>
        <mxCell id="5NzRhWPaP2dXFb9NmcK8-16" value="" style="endArrow=classic;html=1;rounded=0;align=center;exitX=1;exitY=0.25;exitDx=0;exitDy=0;fontFamily=Times New Roman;fontStyle=1;" edge="1" parent="1">
          <mxGeometry width="50" height="50" relative="1" as="geometry">
            <mxPoint x="360" y="540" as="sourcePoint" />
            <mxPoint x="570" y="540" as="targetPoint" />
          </mxGeometry>
        </mxCell>
        <mxCell id="5NzRhWPaP2dXFb9NmcK8-17" value="" style="endArrow=classic;html=1;rounded=0;align=center;exitX=1;exitY=0.25;exitDx=0;exitDy=0;fontFamily=Times New Roman;fontStyle=1" edge="1" parent="1">
          <mxGeometry width="50" height="50" relative="1" as="geometry">
            <mxPoint x="360" y="604.41" as="sourcePoint" />
            <mxPoint x="520" y="604.41" as="targetPoint" />
          </mxGeometry>
        </mxCell>
        <mxCell id="5NzRhWPaP2dXFb9NmcK8-18" value="" style="endArrow=classic;html=1;rounded=0;align=center;exitX=1;exitY=0.25;exitDx=0;exitDy=0;fontFamily=Times New Roman;fontStyle=1" edge="1" parent="1">
          <mxGeometry width="50" height="50" relative="1" as="geometry">
            <mxPoint x="-10" y="583" as="sourcePoint" />
            <mxPoint x="150" y="583" as="targetPoint" />
          </mxGeometry>
        </mxCell>
        <mxCell id="5NzRhWPaP2dXFb9NmcK8-19" value="" style="endArrow=classic;html=1;rounded=0;align=center;exitX=1;exitY=0.25;exitDx=0;exitDy=0;fontFamily=Times New Roman;fontStyle=1" edge="1" parent="1">
          <mxGeometry width="50" height="50" relative="1" as="geometry">
            <mxPoint x="360" y="510" as="sourcePoint" />
            <mxPoint x="520" y="510" as="targetPoint" />
          </mxGeometry>
        </mxCell>
        <mxCell id="5NzRhWPaP2dXFb9NmcK8-20" value="&lt;span style=&quot;line-height: 115%; color: rgb(73, 73, 73);&quot;&gt;&lt;font style=&quot;font-size: 11px;&quot;&gt;Список студентов группы &amp;nbsp;Список предметов&amp;nbsp; Ведомости&amp;nbsp;&lt;/font&gt;&lt;/span&gt;" style="text;html=1;whiteSpace=wrap;strokeColor=none;fillColor=none;align=center;verticalAlign=middle;rounded=0;fontFamily=Times New Roman;fontStyle=1" vertex="1" parent="1">
          <mxGeometry x="520" y="400" width="220" height="30" as="geometry" />
        </mxCell>
        <mxCell id="5NzRhWPaP2dXFb9NmcK8-21" value="&lt;span style=&quot;line-height: 115%; color: rgb(73, 73, 73);&quot;&gt;&lt;font style=&quot;font-size: 11px;&quot;&gt;Ввод данных в ИС&amp;nbsp;&amp;nbsp;&lt;/font&gt;&lt;/span&gt;" style="text;html=1;whiteSpace=wrap;strokeColor=none;fillColor=none;align=center;verticalAlign=middle;rounded=0;fontFamily=Times New Roman;fontStyle=1" vertex="1" parent="1">
          <mxGeometry x="470" y="430" width="140" height="30" as="geometry" />
        </mxCell>
        <mxCell id="5NzRhWPaP2dXFb9NmcK8-23" value="&lt;span style=&quot;line-height: 115%; color: rgb(73, 73, 73);&quot;&gt;&lt;font style=&quot;font-size: 11px;&quot;&gt;(ввод данных) и студентов&lt;br&gt;(просмотр успеваемости)&lt;/font&gt;&lt;/span&gt;" style="text;html=1;whiteSpace=wrap;strokeColor=none;fillColor=none;align=center;verticalAlign=middle;rounded=0;fontFamily=Times New Roman;fontStyle=1" vertex="1" parent="1">
          <mxGeometry x="370" y="460" width="260" height="30" as="geometry" />
        </mxCell>
        <mxCell id="5NzRhWPaP2dXFb9NmcK8-24" value="&lt;span style=&quot;line-height: 115%; color: rgb(73, 73, 73);&quot;&gt;&lt;font style=&quot;font-size: 11px;&quot;&gt;получение информации&lt;/font&gt;&lt;/span&gt;" style="text;html=1;whiteSpace=wrap;strokeColor=none;fillColor=none;align=center;verticalAlign=middle;rounded=0;fontFamily=Times New Roman;fontStyle=1" vertex="1" parent="1">
          <mxGeometry x="520" y="500" width="140" height="30" as="geometry" />
        </mxCell>
        <mxCell id="5NzRhWPaP2dXFb9NmcK8-25" value="&lt;span style=&quot;line-height: 115%; color: rgb(73, 73, 73);&quot;&gt;&lt;font style=&quot;font-size: 11px;&quot;&gt;Ввод данных: после каждой&lt;br&gt;сессии, по мере поступления&amp;nbsp;&lt;/font&gt;&lt;/span&gt;" style="text;html=1;whiteSpace=wrap;strokeColor=none;fillColor=none;align=center;verticalAlign=middle;rounded=0;fontFamily=Times New Roman;fontStyle=1" vertex="1" parent="1">
          <mxGeometry x="550" y="530" width="220" height="30" as="geometry" />
        </mxCell>
        <mxCell id="5NzRhWPaP2dXFb9NmcK8-26" value="&lt;span style=&quot;line-height: 115%; color: rgb(73, 73, 73);&quot;&gt;&lt;font face=&quot;Times New Roman&quot; style=&quot;font-size: 11px;&quot;&gt;Обеспечение точного и&lt;br&gt;своевременного учета успеваемости&amp;nbsp;&lt;/font&gt;&lt;/span&gt;&lt;span style=&quot;font-size: 14pt; line-height: 115%; color: rgb(73, 73, 73);&quot;&gt;&amp;nbsp;&lt;/span&gt;" style="text;html=1;whiteSpace=wrap;strokeColor=none;fillColor=none;align=center;verticalAlign=middle;rounded=0;" vertex="1" parent="1">
          <mxGeometry x="525" y="590" width="130" height="30" as="geometry" />
        </mxCell>
        <mxCell id="5NzRhWPaP2dXFb9NmcK8-28" value="&lt;span style=&quot;font-size:14.0pt;line-height:115%;&lt;br/&gt;font-family:&amp;quot;Times New Roman&amp;quot;,&amp;quot;serif&amp;quot;;mso-fareast-font-family:Calibri;&lt;br/&gt;mso-fareast-theme-font:minor-latin;mso-ansi-language:RU;mso-fareast-language:&lt;br/&gt;EN-US;mso-bidi-language:AR-SA&quot;&gt;Данные&lt;/span&gt;" style="text;html=1;whiteSpace=wrap;strokeColor=none;fillColor=none;align=center;verticalAlign=middle;rounded=0;" vertex="1" parent="1">
          <mxGeometry x="210" y="260" width="60" height="30" as="geometry" />
        </mxCell>
        <mxCell id="5NzRhWPaP2dXFb9NmcK8-29" value="&lt;span style=&quot;font-size:14.0pt;line-height:115%;&lt;br/&gt;font-family:&amp;quot;Times New Roman&amp;quot;,&amp;quot;serif&amp;quot;;mso-fareast-font-family:Calibri;&lt;br/&gt;mso-fareast-theme-font:minor-latin;mso-ansi-language:RU;mso-fareast-language:&lt;br/&gt;EN-US;mso-bidi-language:AR-SA&quot;&gt;Время&lt;/span&gt;" style="text;html=1;whiteSpace=wrap;strokeColor=none;fillColor=none;align=center;verticalAlign=middle;rounded=0;" vertex="1" parent="1">
          <mxGeometry x="290" y="240" width="60" height="30" as="geometry" />
        </mxCell>
        <mxCell id="5NzRhWPaP2dXFb9NmcK8-30" value="&lt;span style=&quot;font-size:14.0pt;line-height:115%;&#xa;font-family:&amp;quot;Times New Roman&amp;quot;,&amp;quot;serif&amp;quot;;mso-fareast-font-family:Calibri;&#xa;mso-fareast-theme-font:minor-latin;mso-ansi-language:RU;mso-fareast-language:&#xa;EN-US;mso-bidi-language:AR-SA&quot;&gt;Функции&lt;/span&gt;" style="text;whiteSpace=wrap;html=1;" vertex="1" parent="1">
          <mxGeometry x="-50" y="420" width="110" height="40" as="geometry" />
        </mxCell>
        <mxCell id="5NzRhWPaP2dXFb9NmcK8-31" value="&lt;span style=&quot;font-size:14.0pt;line-height:115%;&#xa;font-family:&amp;quot;Times New Roman&amp;quot;,&amp;quot;serif&amp;quot;;mso-fareast-font-family:Calibri;&#xa;mso-fareast-theme-font:minor-latin;mso-ansi-language:RU;mso-fareast-language:&#xa;EN-US;mso-bidi-language:AR-SA&quot;&gt;Сети&lt;/span&gt;" style="text;whiteSpace=wrap;html=1;" vertex="1" parent="1">
          <mxGeometry x="-60" y="500" width="80" height="40" as="geometry" />
        </mxCell>
        <mxCell id="5NzRhWPaP2dXFb9NmcK8-32" value="&lt;span style=&quot;font-size:14.0pt;line-height:115%;&#xa;font-family:&amp;quot;Times New Roman&amp;quot;,&amp;quot;serif&amp;quot;;mso-fareast-font-family:Calibri;&#xa;mso-fareast-theme-font:minor-latin;mso-ansi-language:RU;mso-fareast-language:&#xa;EN-US;mso-bidi-language:AR-SA&quot;&gt;Люди&lt;/span&gt;" style="text;whiteSpace=wrap;html=1;" vertex="1" parent="1">
          <mxGeometry x="-70" y="565" width="80" height="40" as="geometry" />
        </mxCell>
        <mxCell id="5NzRhWPaP2dXFb9NmcK8-33" value="&lt;span style=&quot;font-size:14.0pt;line-height:115%;&amp;lt;br/&amp;gt;font-family:&amp;quot;Times New Roman&amp;quot;,&amp;quot;serif&amp;quot;;mso-fareast-font-family:Calibri;&amp;lt;br/&amp;gt;mso-fareast-theme-font:minor-latin;mso-ansi-language:RU;mso-fareast-language:&amp;lt;br/&amp;gt;EN-US;mso-bidi-language:AR-SA&quot;&gt;Мотивации&lt;/span&gt;" style="text;whiteSpace=wrap;html=1;" vertex="1" parent="1">
          <mxGeometry x="220" y="750" width="140" height="40" as="geometry" />
        </mxCell>
      </root>
    </mxGraphModel>
  </diagram>
</mxfile>
